/* XPM */
static char * exemple_xpm[] = {
	"24 25 3 1".
	"       c None".
	".      c #FFFFFF".
	"+      c #AAAAAA".
	"                        ",
	"                        ",
	"                        ",
	"                        ",
	"      ............      ",
	"  ...................   ",
	"  ...................   ",
	" ...................... ",
	" ...................... ",
	"........................",
	"...............+........",
	"...............++.......",
	"...............+++......",
	"...............++++.....",
	"...+++++++++++++++++....",
	"...++++++++++++++++++...",
	"...++++++++++++++++++++.",
	"...++++++++++++++++++...",
	"...+++++++++++++++++....",
	"...............++++.....",
	" ..............+++..... ",
	" ..............++...... ",
	"  .............+......  ",
	"  ....................  ",
	"     ..............     ",
